<svg xmlns="http://www.w3.org/2000/svg" width="815.391" height="815.391">
    <rect x="107.75" y="107.75" width="600" height="600" rx="40" transform="rotate(45 407.788 407.657)" style="fill:#facd00"/>
    <path d="M789.533 393.553a20.023 20.023 0 0 1 0 28.285L421.838 789.533a20.023 20.023 0 0 1-28.285 0L25.858 421.838a20.023 20.023 0 0 1 0-28.285L393.553 25.858a20.023 20.023 0 0 1 28.285 0l367.695 367.695m7.071-7.07L428.91 18.786a30.037 30.037 0 0 0-42.427 0L18.787 386.482a30.037 30.037 0 0 0 0 42.427l367.695 367.695a30.037 30.037 0 0 0 42.427 0L796.604 428.91a30.037 30.037 0 0 0 0-42.427Z"/>
    <path d="M657.696 357.696v100h-200v200h-100v-200h-200v-100h200v-200h100v200h200z"/>
</svg>
